#tb 0: 1/12
0,          0,          0,        1,   112400, 0x829180d8
0,          1,          1,        1,   112400, 0xdbebac5b
0,          2,          2,        1,   112400, 0xc5adc0f7
0,          3,          3,        1,   112400, 0xbe1fc030
0,          4,          4,        1,   112400, 0xe08ab460
0,          5,          5,        1,   112400, 0xfde0dbc5
0,          6,          6,        1,   112400, 0xed9242b0
0,          7,          7,        1,   112400, 0x1ae3933a
0,          8,          8,        1,   112400, 0xc82d2f5b
0,          9,          9,        1,   112400, 0xbae9ddfc
0,         10,         10,        1,   112400, 0xa350a1f7
0,         11,         11,        1,   112400, 0x3cf78029
0,         12,         12,        1,   112400, 0xaa0b82bf
0,         13,         13,        1,   112400, 0x71aa4794
0,         14,         14,        1,   112400, 0x2fe57373
0,         15,         15,        1,   112400, 0x429c6f82
0,         16,         16,        1,   112400, 0xfb2d917d
0,         17,         17,        1,   112400, 0xcc84cb9a
0,         18,         18,        1,   112400, 0xc68f0613
0,         19,         19,        1,   112400, 0x05f30e6a
0,         20,         20,        1,   112400, 0x5c5d853d
0,         21,         21,        1,   112400, 0x01e0aff2
0,         22,         22,        1,   112400, 0xc3b2cf4a
0,         23,         23,        1,   112400, 0xc0a3cf19
0,         24,         24,        1,   112400, 0xc743abda
0,         25,         25,        1,   112400, 0x54bd17a2
0,         26,         26,        1,   112400, 0x616ef28d
0,         27,         27,        1,   112400, 0x04b51f59
0,         28,         28,        1,   112400, 0x857511a2
0,         29,         29,        1,   112400, 0x25c62440
0,         30,         30,        1,   112400, 0x8c78198d
0,         31,         31,        1,   112400, 0xc046c912
0,         32,         32,        1,   112400, 0x0d828630
0,         33,         33,        1,   112400, 0x48999b80
0,         34,         34,        1,   112400, 0x9a869e77
0,         35,         35,        1,   112400, 0x16d893df
0,         36,         36,        1,   112400, 0xf6b86132
0,         37,         37,        1,   112400, 0xfa564ea4
0,         38,         38,        1,   112400, 0xdd473f69
0,         39,         39,        1,   112400, 0xf89625a6
0,         40,         40,        1,   112400, 0x823a58aa
0,         41,         41,        1,   112400, 0x25e0fe43
0,         42,         42,        1,   112400, 0x41034522
0,         43,         43,        1,   112400, 0xb8da4f00
0,         44,         44,        1,   112400, 0x9f684fce
0,         45,         45,        1,   112400, 0xf7188710
0,         46,         46,        1,   112400, 0x428fbfc6
0,         47,         47,        1,   112400, 0x535bace0
0,         48,         48,        1,   112400, 0x23216059
0,         49,         49,        1,   112400, 0x9b8bbfa6
0,         50,         50,        1,   112400, 0x932be522
0,         51,         51,        1,   112400, 0xdbd31409
0,         52,         52,        1,   112400, 0x0a69bf18
0,         53,         53,        1,   112400, 0xa15ef128
0,         54,         54,        1,   112400, 0x49a1fa92
0,         55,         55,        1,   112400, 0xadeeaf62
0,         56,         56,        1,   112400, 0xc1ce636e
0,         57,         57,        1,   112400, 0x5ca544eb
0,         58,         58,        1,   112400, 0x07230a36
0,         59,         59,        1,   112400, 0x12ae2b53
0,         60,         60,        1,   112400, 0x62453ef6
0,         61,         61,        1,   112400, 0xe0588a98
0,         62,         62,        1,   112400, 0xacd3927a
0,         63,         63,        1,   112400, 0x5d3c6b01
0,         64,         64,        1,   112400, 0xda671808
0,         65,         65,        1,   112400, 0x61d0b492
0,         66,         66,        1,   112400, 0x068b1293
0,         67,         67,        1,   112400, 0x75b99287
0,         68,         68,        1,   112400, 0xe657e7d6
0,         69,         69,        1,   112400, 0x17873df6
0,         70,         70,        1,   112400, 0xa8db5e31
0,         71,         71,        1,   112400, 0x4f633b8e
0,         72,         72,        1,   112400, 0x22266252
0,         73,         73,        1,   112400, 0x308a6282
0,         74,         74,        1,   112400, 0xfdb356ce
0,         75,         75,        1,   112400, 0xe4394f1f
0,         76,         76,        1,   112400, 0x8ca8649f
0,         77,         77,        1,   112400, 0x804d44eb
0,         78,         78,        1,   112400, 0x3864488b
